<svg width="50" height="50" viewBox="0 0 110 110" fill="none" xmlns="http://www.w3.org/2000/svg">
<circle cx="55" cy="55" r="53.5" fill="#31313D" stroke="#DC1928" stroke-width="3"/>
<path d="M77.0292 65.3307C76.9025 65.6592 76.6786 65.9413 76.3876 66.1395C76.0965 66.3377 75.752 66.4425 75.3999 66.44C75.1919 66.4747 74.9839 66.4747 74.7759 66.44L54.7039 57.9813L34.5972 66.44C34.3851 66.523 34.1587 66.5633 33.9309 66.5588C33.7032 66.5542 33.4786 66.5048 33.2699 66.4133C33.0613 66.3219 32.8728 66.1902 32.715 66.0259C32.5573 65.8615 32.4336 65.6677 32.3508 65.4555L32.3439 65.4347C32.2254 65.2105 32.1575 64.9632 32.145 64.7099C32.1326 64.4567 32.1758 64.2039 32.2716 63.9692C32.3675 63.7345 32.5137 63.5237 32.6998 63.3516C32.886 63.1795 33.1077 63.0504 33.3492 62.9733L50.1625 56.04L33.3492 49.1067C33.1211 49.0373 32.9097 48.9216 32.7283 48.7669C32.5469 48.6121 32.3994 48.4215 32.295 48.2072C32.1906 47.9928 32.1315 47.7592 32.1215 47.5209C32.1115 47.2827 32.1508 47.0449 32.2369 46.8225C32.323 46.6002 32.454 46.3979 32.6218 46.2285C32.7896 46.0591 32.9906 45.9261 33.2121 45.8379C33.4336 45.7497 33.671 45.7081 33.9093 45.7158C34.1476 45.7235 34.3818 45.7803 34.5972 45.8827L54.7039 54.2373L74.8105 45.8827C75.0259 45.7803 75.2601 45.7235 75.4984 45.7158C75.7368 45.7081 75.9741 45.7497 76.1957 45.8379C76.4172 45.9261 76.6182 46.0591 76.786 46.2285C76.9538 46.3979 77.0848 46.6002 77.1709 46.8225C77.257 47.0449 77.2962 47.2827 77.2862 47.5209C77.2762 47.7592 77.2172 47.9928 77.1128 48.2072C77.0084 48.4215 76.8609 48.6121 76.6795 48.7669C76.4981 48.9216 76.2867 49.0373 76.0585 49.1067L59.2105 56.04L76.0239 62.9733C76.2516 63.0528 76.4603 63.1789 76.6365 63.3436C76.8127 63.5084 76.9526 63.7081 77.0472 63.9299C77.1419 64.1518 77.1891 64.391 77.186 64.6322C77.1829 64.8734 77.1295 65.1113 77.0292 65.3307ZM70.3039 29.104V30.664C70.2964 31.4022 70.0535 32.1188 69.6105 32.7093C67.6741 34.8527 65.589 36.8568 63.3705 38.7067V42.728C63.373 43.0801 63.2682 43.4246 63.07 43.7157C62.8719 44.0068 62.5897 44.2306 62.2612 44.3573L54.7732 47.3733H54.5305L47.0079 44.3573C46.7053 44.2094 46.4523 43.9766 46.2799 43.6872C46.1075 43.3978 46.0232 43.0645 46.0372 42.728V38.7067C43.7937 36.8607 41.6852 34.8564 39.7279 32.7093C39.3095 32.1103 39.0911 31.3945 39.1039 30.664V29.104C39.3843 25.3777 40.9645 21.8682 43.5685 19.1881C46.1726 16.508 49.6352 14.8275 53.3519 14.44H55.9519C59.6898 14.7979 63.1807 16.4661 65.8072 19.1497C68.4337 21.8333 70.0265 25.3593 70.3039 29.104V29.104ZM49.5039 28.3067C49.5039 27.3873 49.1386 26.5055 48.4885 25.8554C47.8384 25.2052 46.9566 24.84 46.0372 24.84C45.1178 24.84 44.236 25.2052 43.5859 25.8554C42.9358 26.5055 42.5705 27.3873 42.5705 28.3067C42.5705 29.2261 42.9358 30.1078 43.5859 30.758C44.236 31.4081 45.1178 31.7733 46.0372 31.7733C46.9566 31.7733 47.8384 31.4081 48.4885 30.758C49.1386 30.1078 49.5039 29.2261 49.5039 28.3067ZM52.9705 38.7067C52.9705 38.247 52.7879 37.8061 52.4629 37.481C52.1378 37.156 51.6969 36.9733 51.2372 36.9733C50.7775 36.9733 50.3366 37.156 50.0116 37.481C49.6865 37.8061 49.5039 38.247 49.5039 38.7067V40.44C49.5039 40.8997 49.6865 41.3406 50.0116 41.6657C50.3366 41.9907 50.7775 42.1733 51.2372 42.1733C51.6969 42.1733 52.1378 41.9907 52.4629 41.6657C52.7879 41.3406 52.9705 40.8997 52.9705 40.44V38.7067ZM59.9039 38.7067C59.9039 38.247 59.7213 37.8061 59.3962 37.481C59.0711 37.156 58.6303 36.9733 58.1705 36.9733C57.7108 36.9733 57.27 37.156 56.9449 37.481C56.6198 37.8061 56.4372 38.247 56.4372 38.7067V40.44C56.4372 40.8997 56.6198 41.3406 56.9449 41.6657C57.27 41.9907 57.7108 42.1733 58.1705 42.1733C58.6303 42.1733 59.0711 41.9907 59.3962 41.6657C59.7213 41.3406 59.9039 40.8997 59.9039 40.44V38.7067ZM66.8372 28.3067C66.8372 27.3873 66.472 26.5055 65.8218 25.8554C65.1717 25.2052 64.29 24.84 63.3705 24.84C62.4511 24.84 61.5694 25.2052 60.9192 25.8554C60.2691 26.5055 59.9039 27.3873 59.9039 28.3067C59.9039 29.2261 60.2691 30.1078 60.9192 30.758C61.5694 31.4081 62.4511 31.7733 63.3705 31.7733C64.29 31.7733 65.1717 31.4081 65.8218 30.758C66.472 30.1078 66.8372 29.2261 66.8372 28.3067Z" fill="#DC1928"/>
<path d="M17.22 80.6V73.6H20.42C21.06 73.6 21.61 73.7033 22.07 73.91C22.5367 74.1166 22.8967 74.4166 23.15 74.81C23.4033 75.1966 23.53 75.6566 23.53 76.19C23.53 76.7166 23.4033 77.1733 23.15 77.56C22.8967 77.94 22.5367 78.2333 22.07 78.44C21.61 78.64 21.06 78.74 20.42 78.74H18.32L19.2 77.91V80.6H17.22ZM21.55 80.6L19.81 78.05H21.92L23.67 80.6H21.55ZM19.2 78.12L18.32 77.21H20.3C20.7133 77.21 21.02 77.12 21.22 76.94C21.4267 76.76 21.53 76.51 21.53 76.19C21.53 75.8633 21.4267 75.61 21.22 75.43C21.02 75.25 20.7133 75.16 20.3 75.16H18.32L19.2 74.25V78.12ZM27.2523 80.69C26.659 80.69 26.1323 80.57 25.6723 80.33C25.2123 80.09 24.849 79.76 24.5823 79.34C24.3223 78.9133 24.1923 78.4266 24.1923 77.88C24.1923 77.3333 24.3223 76.85 24.5823 76.43C24.849 76.01 25.2123 75.6833 25.6723 75.45C26.1323 75.21 26.659 75.09 27.2523 75.09C27.8457 75.09 28.3723 75.21 28.8323 75.45C29.299 75.6833 29.6623 76.01 29.9223 76.43C30.1823 76.85 30.3123 77.3333 30.3123 77.88C30.3123 78.4266 30.1823 78.9133 29.9223 79.34C29.6623 79.76 29.299 80.09 28.8323 80.33C28.3723 80.57 27.8457 80.69 27.2523 80.69ZM27.2523 79.18C27.4723 79.18 27.6657 79.13 27.8323 79.03C28.0057 78.93 28.1423 78.7833 28.2423 78.59C28.3423 78.39 28.3923 78.1533 28.3923 77.88C28.3923 77.6066 28.3423 77.3766 28.2423 77.19C28.1423 76.9966 28.0057 76.85 27.8323 76.75C27.6657 76.65 27.4723 76.6 27.2523 76.6C27.039 76.6 26.8457 76.65 26.6723 76.75C26.5057 76.85 26.369 76.9966 26.2623 77.19C26.1623 77.3766 26.1123 77.6066 26.1123 77.88C26.1123 78.1533 26.1623 78.39 26.2623 78.59C26.369 78.7833 26.5057 78.93 26.6723 79.03C26.8457 79.13 27.039 79.18 27.2523 79.18ZM33.4725 80.69C33.0325 80.69 32.6358 80.6033 32.2825 80.43C31.9358 80.2566 31.6625 79.9866 31.4625 79.62C31.2692 79.2466 31.1725 78.7766 31.1725 78.21V75.18H33.0725V77.9C33.0725 78.32 33.1492 78.62 33.3025 78.8C33.4625 78.98 33.6858 79.07 33.9725 79.07C34.1592 79.07 34.3292 79.0266 34.4825 78.94C34.6358 78.8533 34.7592 78.7166 34.8525 78.53C34.9458 78.3366 34.9925 78.09 34.9925 77.79V75.18H36.8925V80.6H35.0825V79.07L35.4325 79.5C35.2458 79.9 34.9758 80.2 34.6225 80.4C34.2692 80.5933 33.8858 80.69 33.4725 80.69ZM41.6463 75.09C42.0663 75.09 42.4463 75.1766 42.7863 75.35C43.1263 75.5166 43.393 75.7766 43.5863 76.13C43.7863 76.4833 43.8863 76.94 43.8863 77.5V80.6H41.9863V77.81C41.9863 77.4233 41.9063 77.1433 41.7463 76.97C41.593 76.79 41.3763 76.7 41.0963 76.7C40.8963 76.7 40.713 76.7466 40.5463 76.84C40.3797 76.9266 40.2497 77.0633 40.1563 77.25C40.063 77.4366 40.0163 77.68 40.0163 77.98V80.6H38.1163V75.18H39.9263V76.72L39.5763 76.27C39.783 75.8766 40.0663 75.5833 40.4263 75.39C40.7863 75.19 41.193 75.09 41.6463 75.09ZM47.5076 80.69C47.0142 80.69 46.5642 80.5766 46.1576 80.35C45.7576 80.1166 45.4376 79.7933 45.1976 79.38C44.9576 78.96 44.8376 78.46 44.8376 77.88C44.8376 77.3066 44.9576 76.8133 45.1976 76.4C45.4376 75.98 45.7576 75.6566 46.1576 75.43C46.5642 75.2033 47.0142 75.09 47.5076 75.09C47.9742 75.09 48.3676 75.19 48.6876 75.39C49.0142 75.59 49.2609 75.8966 49.4276 76.31C49.5942 76.7233 49.6776 77.2466 49.6776 77.88C49.6776 78.5266 49.5976 79.0566 49.4376 79.47C49.2776 79.8833 49.0376 80.19 48.7176 80.39C48.3976 80.59 47.9942 80.69 47.5076 80.69ZM47.9076 79.18C48.1209 79.18 48.3109 79.13 48.4776 79.03C48.6509 78.93 48.7876 78.7833 48.8876 78.59C48.9876 78.39 49.0376 78.1533 49.0376 77.88C49.0376 77.6066 48.9876 77.3766 48.8876 77.19C48.7876 76.9966 48.6509 76.85 48.4776 76.75C48.3109 76.65 48.1209 76.6 47.9076 76.6C47.6876 76.6 47.4909 76.65 47.3176 76.75C47.1509 76.85 47.0176 76.9966 46.9176 77.19C46.8176 77.3766 46.7676 77.6066 46.7676 77.88C46.7676 78.1533 46.8176 78.39 46.9176 78.59C47.0176 78.7833 47.1509 78.93 47.3176 79.03C47.4909 79.13 47.6876 79.18 47.9076 79.18ZM49.0976 80.6V79.67L49.1076 77.88L49.0076 76.09V73.18H50.9076V80.6H49.0976ZM55.1301 80.6V73.6H58.3301C58.9701 73.6 59.5201 73.7033 59.9801 73.91C60.4468 74.1166 60.8068 74.4166 61.0601 74.81C61.3135 75.1966 61.4401 75.6566 61.4401 76.19C61.4401 76.7166 61.3135 77.1733 61.0601 77.56C60.8068 77.94 60.4468 78.2333 59.9801 78.44C59.5201 78.64 58.9701 78.74 58.3301 78.74H56.2301L57.1101 77.91V80.6H55.1301ZM59.4601 80.6L57.7201 78.05H59.8301L61.5801 80.6H59.4601ZM57.1101 78.12L56.2301 77.21H58.2101C58.6235 77.21 58.9301 77.12 59.1301 76.94C59.3368 76.76 59.4401 76.51 59.4401 76.19C59.4401 75.8633 59.3368 75.61 59.1301 75.43C58.9301 75.25 58.6235 75.16 58.2101 75.16H56.2301L57.1101 74.25V78.12ZM65.2825 80.69C64.6425 80.69 64.0825 80.57 63.6025 80.33C63.1292 80.0833 62.7592 79.75 62.4925 79.33C62.2325 78.9033 62.1025 78.42 62.1025 77.88C62.1025 77.34 62.2292 76.86 62.4825 76.44C62.7425 76.0133 63.0992 75.6833 63.5525 75.45C64.0058 75.21 64.5158 75.09 65.0825 75.09C65.6158 75.09 66.1025 75.2 66.5425 75.42C66.9825 75.6333 67.3325 75.95 67.5925 76.37C67.8525 76.79 67.9825 77.3 67.9825 77.9C67.9825 77.9666 67.9792 78.0433 67.9725 78.13C67.9658 78.2166 67.9592 78.2966 67.9525 78.37H63.6625V77.37H66.9425L66.2225 77.65C66.2292 77.4033 66.1825 77.19 66.0825 77.01C65.9892 76.83 65.8558 76.69 65.6825 76.59C65.5158 76.49 65.3192 76.44 65.0925 76.44C64.8658 76.44 64.6658 76.49 64.4925 76.59C64.3258 76.69 64.1958 76.8333 64.1025 77.02C64.0092 77.2 63.9625 77.4133 63.9625 77.66V77.95C63.9625 78.2166 64.0158 78.4466 64.1225 78.64C64.2358 78.8333 64.3958 78.9833 64.6025 79.09C64.8092 79.19 65.0558 79.24 65.3425 79.24C65.6092 79.24 65.8358 79.2033 66.0225 79.13C66.2158 79.05 66.4058 78.93 66.5925 78.77L67.5925 79.81C67.3325 80.0966 67.0125 80.3166 66.6325 80.47C66.2525 80.6166 65.8025 80.69 65.2825 80.69ZM72.2685 80.69C71.8085 80.69 71.4152 80.59 71.0885 80.39C70.7618 80.1833 70.5118 79.8766 70.3385 79.47C70.1718 79.0566 70.0885 78.53 70.0885 77.89C70.0885 77.2433 70.1685 76.7166 70.3285 76.31C70.4885 75.8966 70.7285 75.59 71.0485 75.39C71.3752 75.19 71.7818 75.09 72.2685 75.09C72.7618 75.09 73.2085 75.2066 73.6085 75.44C74.0152 75.6666 74.3352 75.99 74.5685 76.41C74.8085 76.8233 74.9285 77.3166 74.9285 77.89C74.9285 78.4633 74.8085 78.96 74.5685 79.38C74.3352 79.8 74.0152 80.1233 73.6085 80.35C73.2085 80.5766 72.7618 80.69 72.2685 80.69ZM68.8585 82.54V75.18H70.6685V76.1L70.6585 77.89L70.7585 79.69V82.54H68.8585ZM71.8685 79.18C72.0818 79.18 72.2718 79.13 72.4385 79.03C72.6118 78.93 72.7485 78.7833 72.8485 78.59C72.9552 78.3966 73.0085 78.1633 73.0085 77.89C73.0085 77.6166 72.9552 77.3833 72.8485 77.19C72.7485 76.9966 72.6118 76.85 72.4385 76.75C72.2718 76.65 72.0818 76.6 71.8685 76.6C71.6552 76.6 71.4618 76.65 71.2885 76.75C71.1218 76.85 70.9852 76.9966 70.8785 77.19C70.7785 77.3833 70.7285 77.6166 70.7285 77.89C70.7285 78.1633 70.7785 78.3966 70.8785 78.59C70.9852 78.7833 71.1218 78.93 71.2885 79.03C71.4618 79.13 71.6552 79.18 71.8685 79.18ZM78.5316 80.69C77.9383 80.69 77.4116 80.57 76.9516 80.33C76.4916 80.09 76.1283 79.76 75.8616 79.34C75.6016 78.9133 75.4716 78.4266 75.4716 77.88C75.4716 77.3333 75.6016 76.85 75.8616 76.43C76.1283 76.01 76.4916 75.6833 76.9516 75.45C77.4116 75.21 77.9383 75.09 78.5316 75.09C79.125 75.09 79.6516 75.21 80.1116 75.45C80.5783 75.6833 80.9416 76.01 81.2016 76.43C81.4616 76.85 81.5916 77.3333 81.5916 77.88C81.5916 78.4266 81.4616 78.9133 81.2016 79.34C80.9416 79.76 80.5783 80.09 80.1116 80.33C79.6516 80.57 79.125 80.69 78.5316 80.69ZM78.5316 79.18C78.7516 79.18 78.945 79.13 79.1116 79.03C79.285 78.93 79.4216 78.7833 79.5216 78.59C79.6216 78.39 79.6716 78.1533 79.6716 77.88C79.6716 77.6066 79.6216 77.3766 79.5216 77.19C79.4216 76.9966 79.285 76.85 79.1116 76.75C78.945 76.65 78.7516 76.6 78.5316 76.6C78.3183 76.6 78.125 76.65 77.9516 76.75C77.785 76.85 77.6483 76.9966 77.5416 77.19C77.4416 77.3766 77.3916 77.6066 77.3916 77.88C77.3916 78.1533 77.4416 78.39 77.5416 78.59C77.6483 78.7833 77.785 78.93 77.9516 79.03C78.125 79.13 78.3183 79.18 78.5316 79.18ZM82.4718 80.6V75.18H84.2818V76.76L84.0118 76.31C84.1718 75.9033 84.4318 75.6 84.7918 75.4C85.1518 75.1933 85.5885 75.09 86.1018 75.09V76.8C86.0151 76.7866 85.9385 76.78 85.8718 76.78C85.8118 76.7733 85.7451 76.77 85.6718 76.77C85.2851 76.77 84.9718 76.8766 84.7318 77.09C84.4918 77.2966 84.3718 77.6366 84.3718 78.11V80.6H82.4718ZM89.4719 80.69C88.7785 80.69 88.2385 80.52 87.8519 80.18C87.4652 79.8333 87.2719 79.3133 87.2719 78.62V73.97H89.1719V78.6C89.1719 78.7933 89.2252 78.9466 89.3319 79.06C89.4385 79.1666 89.5752 79.22 89.7419 79.22C89.9685 79.22 90.1619 79.1633 90.3219 79.05L90.7919 80.38C90.6319 80.4866 90.4352 80.5633 90.2019 80.61C89.9685 80.6633 89.7252 80.69 89.4719 80.69ZM86.4819 76.8V75.38H90.4119V76.8H86.4819Z" fill="white"/>
</svg>
